<svg width="153" height="51" viewBox="0 0 153 51" fill="none" xmlns="http://www.w3.org/2000/svg">
<path d="M9.78094 35.424L5.77294 42H1.74094L6.61294 34.464C6.14894 34.272 5.68494 33.992 5.22094 33.624C4.75694 33.24 4.37294 32.736 4.06894 32.112C3.76494 31.472 3.61294 30.688 3.61294 29.76C3.61294 28.176 4.18094 26.968 5.31694 26.136C6.45294 25.288 8.04494 24.864 10.0929 24.864H15.6609V42H12.0369V35.424H9.78094ZM10.2369 27.84C9.61294 27.84 9.07694 27.912 8.62894 28.056C8.19694 28.2 7.86094 28.432 7.62094 28.752C7.39694 29.072 7.28494 29.496 7.28494 30.024C7.28494 30.776 7.53294 31.376 8.02894 31.824C8.54094 32.256 9.30894 32.472 10.3329 32.472H12.0369V27.84H10.2369ZM31.7486 28.656C33.2206 28.656 34.4126 29.232 35.3246 30.384C36.2366 31.52 36.6926 33.2 36.6926 35.424C36.6926 36.912 36.4766 38.168 36.0446 39.192C35.6126 40.2 35.0206 40.96 34.2686 41.472C33.5166 41.984 32.6446 42.24 31.6526 42.24C31.0286 42.24 30.4846 42.16 30.0206 42C29.5726 41.84 29.1886 41.632 28.8686 41.376C28.5486 41.12 28.2686 40.848 28.0286 40.56H27.8366C27.9006 40.864 27.9486 41.184 27.9806 41.52C28.0126 41.84 28.0286 42.16 28.0286 42.48V47.76H24.4526V28.896H27.3566L27.8606 30.6H28.0286C28.2686 30.248 28.5566 29.928 28.8926 29.64C29.2286 29.336 29.6286 29.096 30.0926 28.92C30.5726 28.744 31.1246 28.656 31.7486 28.656ZM30.5966 31.512C29.9726 31.512 29.4766 31.64 29.1086 31.896C28.7406 32.152 28.4686 32.544 28.2926 33.072C28.1326 33.584 28.0446 34.232 28.0286 35.016V35.4C28.0286 36.248 28.1086 36.968 28.2686 37.56C28.4286 38.136 28.7006 38.576 29.0846 38.88C29.4686 39.184 29.9886 39.336 30.6446 39.336C31.1886 39.336 31.6366 39.184 31.9886 38.88C32.3406 38.576 32.6046 38.128 32.7806 37.536C32.9566 36.944 33.0446 36.224 33.0446 35.376C33.0446 34.096 32.8446 33.136 32.4446 32.496C32.0606 31.84 31.4446 31.512 30.5966 31.512ZM56.4358 28.896V33.936H61.4278V28.896H65.0038V42H61.4278V36.6H56.4358V42H52.8598V28.896H56.4358ZM73.6464 28.632C75.4064 28.632 76.7504 29.016 77.6784 29.784C78.6224 30.536 79.0944 31.696 79.0944 33.264V42H76.5984L75.9024 40.224H75.8064C75.4384 40.688 75.0544 41.072 74.6544 41.376C74.2704 41.68 73.8224 41.896 73.3104 42.024C72.8144 42.168 72.1984 42.24 71.4624 42.24C70.6944 42.24 69.9984 42.096 69.3744 41.808C68.7664 41.504 68.2864 41.048 67.9344 40.44C67.5824 39.816 67.4064 39.032 67.4064 38.088C67.4064 36.696 67.8944 35.672 68.8704 35.016C69.8464 34.344 71.3104 33.976 73.2624 33.912L75.5424 33.84V33.264C75.5424 32.576 75.3584 32.072 74.9904 31.752C74.6384 31.432 74.1424 31.272 73.5024 31.272C72.8624 31.272 72.2384 31.368 71.6304 31.56C71.0224 31.736 70.4144 31.96 69.8064 32.232L68.6304 29.808C69.3344 29.44 70.1104 29.152 70.9584 28.944C71.8224 28.736 72.7184 28.632 73.6464 28.632ZM74.1504 35.976C72.9984 36.008 72.1984 36.216 71.7504 36.6C71.3024 36.984 71.0784 37.488 71.0784 38.112C71.0784 38.656 71.2384 39.048 71.5584 39.288C71.8784 39.512 72.2944 39.624 72.8064 39.624C73.5744 39.624 74.2224 39.4 74.7504 38.952C75.2784 38.488 75.5424 37.84 75.5424 37.008V35.928L74.1504 35.976ZM93.8908 32.328C93.8908 33.032 93.6668 33.632 93.2188 34.128C92.7868 34.624 92.1388 34.944 91.2748 35.088V35.184C92.1868 35.296 92.9148 35.608 93.4588 36.12C94.0188 36.632 94.2988 37.288 94.2988 38.088C94.2988 38.648 94.1868 39.168 93.9628 39.648C93.7548 40.128 93.4188 40.544 92.9548 40.896C92.4908 41.248 91.8908 41.52 91.1548 41.712C90.4348 41.904 89.5548 42 88.5148 42H82.2748V28.896H88.5148C89.5388 28.896 90.4508 29.008 91.2508 29.232C92.0668 29.44 92.7068 29.792 93.1708 30.288C93.6508 30.784 93.8908 31.464 93.8908 32.328ZM90.6028 37.896C90.6028 37.384 90.4028 37.016 90.0028 36.792C89.6028 36.552 89.0028 36.432 88.2028 36.432H85.8508V39.528H88.2748C88.9468 39.528 89.4988 39.408 89.9308 39.168C90.3788 38.912 90.6028 38.488 90.6028 37.896ZM90.2668 32.616C90.2668 32.2 90.1068 31.896 89.7868 31.704C89.4668 31.512 88.9948 31.416 88.3708 31.416H85.8508V34.008H87.9628C88.7148 34.008 89.2828 33.904 89.6668 33.696C90.0668 33.472 90.2668 33.112 90.2668 32.616ZM102.265 28.632C104.025 28.632 105.369 29.016 106.297 29.784C107.241 30.536 107.713 31.696 107.713 33.264V42H105.217L104.521 40.224H104.425C104.057 40.688 103.673 41.072 103.273 41.376C102.889 41.68 102.441 41.896 101.929 42.024C101.433 42.168 100.817 42.24 100.081 42.24C99.3126 42.24 98.6166 42.096 97.9926 41.808C97.3846 41.504 96.9046 41.048 96.5526 40.44C96.2006 39.816 96.0246 39.032 96.0246 38.088C96.0246 36.696 96.5126 35.672 97.4886 35.016C98.4646 34.344 99.9286 33.976 101.881 33.912L104.161 33.84V33.264C104.161 32.576 103.977 32.072 103.609 31.752C103.257 31.432 102.761 31.272 102.121 31.272C101.481 31.272 100.857 31.368 100.249 31.56C99.6406 31.736 99.0326 31.96 98.4246 32.232L97.2486 29.808C97.9526 29.44 98.7286 29.152 99.5766 28.944C100.441 28.736 101.337 28.632 102.265 28.632ZM102.769 35.976C101.617 36.008 100.817 36.216 100.369 36.6C99.9206 36.984 99.6966 37.488 99.6966 38.112C99.6966 38.656 99.8566 39.048 100.177 39.288C100.497 39.512 100.913 39.624 101.425 39.624C102.193 39.624 102.841 39.4 103.369 38.952C103.897 38.488 104.161 37.84 104.161 37.008V35.928L102.769 35.976ZM121.741 31.584H117.445V42H113.869V31.584H109.573V28.896H121.741V31.584ZM135.348 35.424C135.348 36.512 135.196 37.48 134.892 38.328C134.604 39.176 134.18 39.896 133.62 40.488C133.076 41.064 132.412 41.504 131.628 41.808C130.844 42.096 129.956 42.24 128.964 42.24C128.052 42.24 127.204 42.096 126.42 41.808C125.652 41.504 124.988 41.064 124.428 40.488C123.868 39.896 123.428 39.176 123.108 38.328C122.804 37.48 122.652 36.512 122.652 35.424C122.652 33.968 122.908 32.744 123.42 31.752C123.932 30.744 124.668 29.976 125.628 29.448C126.588 28.92 127.724 28.656 129.036 28.656C130.268 28.656 131.356 28.92 132.3 29.448C133.244 29.976 133.988 30.744 134.532 31.752C135.076 32.744 135.348 33.968 135.348 35.424ZM126.3 35.424C126.3 36.288 126.388 37.016 126.564 37.608C126.756 38.184 127.052 38.624 127.452 38.928C127.852 39.216 128.372 39.36 129.012 39.36C129.652 39.36 130.164 39.216 130.548 38.928C130.948 38.624 131.236 38.184 131.412 37.608C131.604 37.016 131.7 36.288 131.7 35.424C131.7 34.56 131.604 33.84 131.412 33.264C131.236 32.688 130.948 32.256 130.548 31.968C130.148 31.68 129.628 31.536 128.988 31.536C128.044 31.536 127.356 31.864 126.924 32.52C126.508 33.16 126.3 34.128 126.3 35.424ZM145.12 28.656C146.592 28.656 147.784 29.232 148.696 30.384C149.608 31.52 150.064 33.2 150.064 35.424C150.064 36.912 149.848 38.168 149.416 39.192C148.984 40.2 148.392 40.96 147.64 41.472C146.888 41.984 146.016 42.24 145.024 42.24C144.4 42.24 143.856 42.16 143.392 42C142.944 41.84 142.56 41.632 142.24 41.376C141.92 41.12 141.64 40.848 141.4 40.56H141.208C141.272 40.864 141.32 41.184 141.352 41.52C141.384 41.84 141.4 42.16 141.4 42.48V47.76H137.824V28.896H140.728L141.232 30.6H141.4C141.64 30.248 141.928 29.928 142.264 29.64C142.6 29.336 143 29.096 143.464 28.92C143.944 28.744 144.496 28.656 145.12 28.656ZM143.968 31.512C143.344 31.512 142.848 31.64 142.48 31.896C142.112 32.152 141.84 32.544 141.664 33.072C141.504 33.584 141.416 34.232 141.4 35.016V35.4C141.4 36.248 141.48 36.968 141.64 37.56C141.8 38.136 142.072 38.576 142.456 38.88C142.84 39.184 143.36 39.336 144.016 39.336C144.56 39.336 145.008 39.184 145.36 38.88C145.712 38.576 145.976 38.128 146.152 37.536C146.328 36.944 146.416 36.224 146.416 35.376C146.416 34.096 146.216 33.136 145.816 32.496C145.432 31.84 144.816 31.512 143.968 31.512Z" fill="#122561"/>
<path d="M44.5601 28.656C45.7761 28.656 46.8161 28.888 47.6801 29.352C48.5601 29.816 49.2401 30.488 49.7201 31.368C50.2001 32.248 50.4401 33.328 50.4401 34.608V36.336H41.9921C42.0241 37.344 42.3201 38.136 42.8801 38.712C43.4561 39.288 44.2481 39.576 45.2561 39.576C46.1041 39.576 46.8721 39.496 47.5601 39.336C48.2481 39.16 48.9601 38.896 49.6961 38.544V41.304C49.0561 41.624 48.3761 41.856 47.6561 42C46.9521 42.16 46.0961 42.24 45.0881 42.24C43.7761 42.24 42.6161 42 41.6081 41.52C40.6001 41.024 39.8081 40.28 39.2321 39.288C38.6561 38.296 38.3681 37.048 38.3681 35.544C38.3681 34.008 38.6241 32.736 39.1361 31.728C39.6641 30.704 40.3921 29.936 41.3201 29.424C42.2481 28.912 43.3281 28.656 44.5601 28.656ZM44.5841 31.2C43.8961 31.2 43.3201 31.424 42.8561 31.872C42.4081 32.32 42.1441 33.016 42.0641 33.96H47.0801C47.0801 33.432 46.9841 32.96 46.7921 32.544C46.6161 32.128 46.3441 31.8 45.9761 31.56C45.6081 31.32 45.1441 31.2 44.5841 31.2Z" fill="#C46E2C"/>
<path d="M89.8463 17.424C89.8463 18.512 89.6943 19.48 89.3903 20.328C89.1023 21.176 88.6783 21.896 88.1183 22.488C87.5743 23.064 86.9103 23.504 86.1263 23.808C85.3423 24.096 84.4543 24.24 83.4623 24.24C82.5503 24.24 81.7023 24.096 80.9183 23.808C80.1503 23.504 79.4863 23.064 78.9263 22.488C78.3663 21.896 77.9263 21.176 77.6063 20.328C77.3023 19.48 77.1503 18.512 77.1503 17.424C77.1503 15.968 77.4063 14.744 77.9183 13.752C78.4303 12.744 79.1663 11.976 80.1263 11.448C81.0863 10.92 82.2223 10.656 83.5343 10.656C84.7663 10.656 85.8543 10.92 86.7983 11.448C87.7423 11.976 88.4863 12.744 89.0303 13.752C89.5743 14.744 89.8463 15.968 89.8463 17.424ZM80.7983 17.424C80.7983 18.288 80.8863 19.016 81.0623 19.608C81.2543 20.184 81.5503 20.624 81.9503 20.928C82.3503 21.216 82.8703 21.36 83.5103 21.36C84.1503 21.36 84.6623 21.216 85.0463 20.928C85.4463 20.624 85.7343 20.184 85.9103 19.608C86.1023 19.016 86.1983 18.288 86.1983 17.424C86.1983 16.56 86.1023 15.84 85.9103 15.264C85.7343 14.688 85.4463 14.256 85.0463 13.968C84.6463 13.68 84.1263 13.536 83.4863 13.536C82.5423 13.536 81.8543 13.864 81.4223 14.52C81.0063 15.16 80.7983 16.128 80.7983 17.424Z" fill="#122561"/>
<path d="M76 23L70 50.5" stroke="#C13546" stroke-width="3"/>
</svg>
