<svg width="18" height="18" viewBox="0 0 18 18" fill="none" xmlns="http://www.w3.org/2000/svg">
<path fill-rule="evenodd" clip-rule="evenodd" d="M11.4215 12.5999C10.2925 13.4774 8.87401 14 7.33342 14C3.65152 14 0.666748 11.0152 0.666748 7.33333C0.666748 3.65143 3.65152 0.666664 7.33342 0.666664C11.0153 0.666664 14.0001 3.65143 14.0001 7.33333C14.0001 8.87392 13.4775 10.2925 12.6 11.4214L17.0893 15.9107C17.4148 16.2362 17.4148 16.7638 17.0893 17.0893C16.7639 17.4147 16.2363 17.4147 15.9108 17.0893L11.4215 12.5999ZM12.3334 7.33333C12.3334 10.0948 10.0948 12.3333 7.33342 12.3333C4.57199 12.3333 2.33341 10.0948 2.33341 7.33333C2.33341 4.57191 4.57199 2.33333 7.33342 2.33333C10.0948 2.33333 12.3334 4.57191 12.3334 7.33333Z" fill="#3772FF"/>
</svg>
